<?xml version="1.0" encoding="utf-8"?>
<!-- Generator: Adobe Illustrator 21.1.0, SVG Export Plug-In . SVG Version: 6.00 Build 0)  -->
<svg version="1.1" id="Ebene_1" xmlns="http://www.w3.org/2000/svg" xmlns:xlink="http://www.w3.org/1999/xlink" x="0px" y="0px"
	 viewBox="0 0 1920 1080" style="enable-background:new 0 0 1920 1080;" xml:space="preserve">
<style type="text/css">
	.st0{fill:none;stroke:#4B0055;stroke-width:4;stroke-linecap:round;stroke-miterlimit:10;}
</style>
<title>Zeichenfläche 1</title>
<g id="XMLID_1_">
	<polygon class="st0" points="144.6,26.6 192.8,110 144.6,193.5 48.2,193.5 0,110 48.2,26.6 	"/>
</g>
<title>Zeichenfläche 1</title>
<g id="XMLID_2_">
	<polygon class="st0" points="438.6,195.5 486.8,279 438.6,362.4 342.2,362.4 294,279 342.2,195.5 	"/>
</g>
<title>Zeichenfläche 1</title>
<g id="XMLID_3_">
	<polygon class="st0" points="291.6,110 339.8,193.5 291.6,277 195.2,277 147,193.5 195.2,110 	"/>
</g>
<title>Zeichenfläche 1</title>
<g id="XMLID_4_">
	<polygon class="st0" points="291.6,279 339.8,362.4 291.6,445.9 195.2,445.9 147,362.4 195.2,279 	"/>
</g>
<title>Zeichenfläche 1</title>
<title>Zeichenfläche 1</title>
<g id="XMLID_6_">
	<polygon class="st0" points="1495.2,210 1543.4,293.5 1495.2,377 1398.8,377 1350.6,293.5 1398.8,210 	"/>
</g>
<title>Zeichenfläche 1</title>
<g id="XMLID_7_">
	<polygon class="st0" points="1350.2,295.5 1398.4,379 1350.2,462.4 1253.8,462.4 1205.6,379 1253.8,295.5 	"/>
</g>
<title>Zeichenfläche 1</title>
<g id="XMLID_8_">
	<polygon class="st0" points="266.9,803 315.1,886.5 266.9,970 170.5,970 122.3,886.5 170.5,803 	"/>
</g>
<title>Zeichenfläche 1</title>
<g id="XMLID_9_">
	<polygon class="st0" points="412.9,888.5 461.1,972 412.9,1055.4 316.5,1055.4 268.3,972 316.5,888.5 	"/>
</g>
<title>Zeichenfläche 1</title>
<g id="XMLID_10_">
	<polygon class="st0" points="1865.2,520 1913.4,603.5 1865.2,687 1768.8,687 1720.6,603.5 1768.8,520 	"/>
</g>
<title>Zeichenfläche 1</title>
<g id="XMLID_11_">
	<polygon class="st0" points="1865.2,689 1913.4,772.4 1865.2,855.9 1768.8,855.9 1720.6,772.4 1768.8,689 	"/>
</g>
<title>Zeichenfläche 1</title>
<g id="XMLID_12_">
	<polygon class="st0" points="1718.2,605.5 1766.4,689 1718.2,772.4 1621.8,772.4 1573.6,689 1621.8,605.5 	"/>
</g>
<title>Zeichenfläche 1</title>
<g id="XMLID_13_">
	<polygon class="st0" points="1865.2,73 1913.4,156.5 1865.2,240 1768.8,240 1720.6,156.5 1768.8,73 	"/>
</g>
<title>Zeichenfläche 1</title>
<title>Zeichenfläche 1</title>
<g id="XMLID_15_">
	<polygon class="st0" points="1427.2,776.4 1475.4,859.9 1427.2,943.4 1330.8,943.4 1282.6,859.9 1330.8,776.4 	"/>
</g>
<g id="XMLID_14_">
	<polygon class="st0" points="729.8,364.4 777.9,447.9 729.8,531.4 633.4,531.4 585.2,447.9 633.4,364.4 	"/>
</g>
<g id="XMLID_16_">
	<polygon class="st0" points="1024.2,197.5 1072.4,281 1024.2,364.4 927.8,364.4 879.6,281 927.8,197.5 	"/>
</g>
<g id="XMLID_5_">
	<polygon class="st0" points="1079.2,691 1127.4,774.4 1079.2,857.9 982.8,857.9 934.6,774.4 982.8,691 	"/>
</g>
</svg>
